<?xml version="1.0" encoding="UTF-8"?>
<svg width="24px" height="24px" viewBox="0 0 24 24" version="1.1" xmlns="http://www.w3.org/2000/svg" xmlns:xlink="http://www.w3.org/1999/xlink">
    <!-- Generator: sketchtool 59 (101010) - https://sketch.com -->
    <title>20776FBC-CBBB-4FD4-9EDB-B8D23BE16129</title>
    <desc>Created with sketchtool.</desc>
    <g id="Asset-Artboard-Page" stroke="none" stroke-width="1" fill="none" fill-rule="evenodd">
        <g id="Clock---Pending" fill="#FFAA03">
            <path d="M12,0 C18.627417,0 24,5.372583 24,12 C24,18.627417 18.627417,24 12,24 C5.372583,24 0,18.627417 0,12 C0,5.372583 5.372583,0 12,0 Z M12,4.59574454 C7.91717014,4.59574454 4.59574454,7.91717014 4.59574454,12 C4.59574454,16.0828299 7.91717014,19.4042555 12,19.4042555 C16.0828299,19.4042555 19.4042555,16.0828299 19.4042555,12 C19.4042555,7.91717014 16.0828299,4.59574454 12,4.59574454 Z M12.0000001,5.58297862 C15.5383457,5.58297862 18.4170216,8.46165446 18.4170216,12.0000001 C18.4170216,15.5383457 15.5383457,18.4170216 12.0000001,18.4170216 C8.46165446,18.4170216 5.58297862,15.5383457 5.58297862,12.0000001 C5.58297862,8.46165446 8.46165446,5.58297862 12.0000001,5.58297862 Z M11.6709392,7.55744668 C11.3076276,7.55744668 11.012766,7.81879447 11.012766,8.14081227 L11.012766,8.14081227 L11.012766,12.2243714 C11.012766,12.445467 11.1536151,12.6473114 11.3767358,12.7464836 L11.3767358,12.7464836 L14.0094284,13.9132148 C14.1035472,13.9546337 14.2042477,13.9744682 14.3029736,13.9744682 C14.5445232,13.9744682 14.7768583,13.8566283 14.8920386,13.6524504 C15.0546074,13.3642678 14.9229727,13.013665 14.5978352,12.8695737 L14.5978352,12.8695737 L12.3291123,11.8638515 L12.3291123,8.14081227 C12.3291123,7.81879447 12.0342508,7.55744668 11.6709392,7.55744668 Z" id="Combined-Shape"></path>
        </g>
    </g>
</svg>